<?xml version="1.0" encoding="UTF-8"?>
<svg width="32" height="32" version="1.1" viewBox="0 0 1 1" xmlns="http://www.w3.org/2000/svg"><path d="m0.12458 0.7954c-0.047341-0.065074-0.066693-0.11811-0.035408-0.25163l0.27496-0.25811 0.47881-0.10361 0.015417 0.14619 0.068784 0.047159-0.23017 0.45058-0.059256 0.031782z" fill="#4d4d4d"/><path d="m0.63929 0.80446-0.014926-0.17111 0.23724-0.44763-0.0043147 0.18982z" fill="#ececec"/><path d="m0.13555 0.73704-0.018946-0.20442 0.51118 0.054339 0.011502 0.2175z" fill="#ececec"/><path d="m0.19709 0.67013 0.17966 0.020108-0.014712 0.053124-0.002329 0.10414-0.051371 0.11566-0.08668-0.062633-0.10921 0.029754 0.065244-0.11792 0.003891-0.094027z" fill="#ccc"/><path d="m0.076571 0.54784 0.2506-0.47251 0.53315 0.049918 0.048769 0.05556-0.25866 0.48906-0.54552-0.063769z" fill="#666"/><path d="m0.60942 0.4723 0.061508-0.046232 0.10926-0.2149-0.35619-0.054863-0.045014 0.013612-0.13326 0.25934z" fill="#999"/><path d="m0.48046 0.68606 0.17892 0.017308 0.081071-0.14505-0.052938 0.20908z" fill="#fff"/></svg>
